<svg id="svg" version="1.1" xmlns="http://www.w3.org/2000/svg" xmlns:xlink="http://www.w3.org/1999/xlink" width="400" height="164.7887323943662" viewBox="0, 0, 400,164.7887323943662"><g id="svgg"><path id="path0" d="M166.000 28.704 C 164.774 28.899,162.291 29.339,162.083 29.397 C 161.992 29.423,161.579 29.535,161.167 29.647 C 159.858 30.001,157.921 30.725,157.794 30.907 C 157.727 31.004,157.671 31.026,157.669 30.956 C 157.664 30.685,153.738 32.862,152.417 33.870 C 148.417 36.920,145.726 40.338,143.784 44.833 C 143.368 45.796,142.934 46.921,142.819 47.333 C 142.705 47.746,142.585 48.158,142.555 48.250 C 142.434 48.609,141.818 51.475,141.640 52.500 C 141.396 53.911,141.389 60.061,141.630 61.667 C 141.793 62.751,142.388 65.597,142.554 66.083 C 142.586 66.175,142.745 66.700,142.907 67.250 C 143.070 67.800,143.270 68.321,143.352 68.408 C 143.433 68.495,143.501 68.683,143.502 68.825 C 143.507 69.485,146.029 73.976,147.222 75.448 C 147.890 76.273,151.077 79.424,151.747 79.923 C 153.024 80.873,155.062 82.167,155.280 82.167 C 155.401 82.167,155.500 82.242,155.500 82.333 C 155.500 82.425,155.580 82.500,155.677 82.500 C 155.774 82.500,156.243 82.681,156.719 82.903 C 159.815 84.346,162.721 85.113,166.667 85.530 C 168.461 85.719,173.234 85.602,174.346 85.341 C 174.752 85.246,175.796 85.026,176.667 84.853 C 178.449 84.498,180.167 84.034,180.417 83.840 C 180.508 83.768,180.883 83.614,181.250 83.496 C 181.924 83.280,184.846 81.844,185.000 81.653 C 185.046 81.596,185.271 81.452,185.500 81.333 C 186.956 80.576,190.598 77.349,192.004 75.571 C 198.155 67.793,199.923 54.128,195.908 45.391 C 195.775 45.103,195.667 44.822,195.667 44.767 C 195.667 44.622,194.629 42.432,194.514 42.333 C 194.460 42.287,194.304 42.025,194.168 41.750 C 193.100 39.599,189.559 35.532,187.565 34.167 C 184.857 32.312,183.404 31.481,181.721 30.824 C 181.004 30.545,180.267 30.247,180.083 30.163 C 179.192 29.756,176.550 29.177,173.328 28.683 C 171.919 28.467,167.402 28.480,166.000 28.704 M339.333 28.704 C 337.884 28.935,335.781 29.308,335.417 29.398 C 332.887 30.026,329.445 31.435,327.833 32.505 C 327.604 32.657,327.081 32.999,326.670 33.266 C 325.848 33.799,325.878 33.777,324.330 35.034 C 322.417 36.588,319.000 40.617,319.000 41.319 C 319.000 41.419,318.941 41.500,318.868 41.500 C 318.612 41.500,316.801 45.388,316.229 47.167 C 315.832 48.401,315.888 48.183,315.418 50.333 C 314.371 55.131,314.567 61.613,315.895 66.083 C 316.426 67.872,316.560 68.276,316.665 68.417 C 316.734 68.508,316.877 68.853,316.983 69.183 C 317.220 69.921,318.611 72.652,318.932 73.013 C 319.061 73.158,319.167 73.340,319.167 73.418 C 319.167 73.755,321.192 76.216,322.738 77.757 C 325.023 80.036,326.923 81.400,329.529 82.632 C 333.290 84.409,335.698 85.073,340.000 85.522 C 341.901 85.720,346.494 85.615,347.686 85.346 C 348.088 85.255,349.129 85.035,350.000 84.858 C 351.818 84.487,353.507 84.028,353.750 83.840 C 353.842 83.768,354.217 83.613,354.583 83.495 C 358.508 82.230,363.644 78.135,366.486 74.004 C 372.892 64.692,372.981 49.768,366.685 40.417 C 365.049 37.986,362.575 35.315,360.899 34.167 C 357.993 32.177,356.856 31.527,355.044 30.820 C 354.332 30.543,353.600 30.247,353.417 30.163 C 352.526 29.756,349.884 29.177,346.661 28.683 C 345.252 28.467,340.736 28.480,339.333 28.704 M41.417 29.103 C 41.233 29.149,40.989 29.217,40.873 29.255 C 40.758 29.293,40.608 29.335,40.540 29.347 C 39.819 29.481,38.701 30.696,38.287 31.795 C 37.883 32.867,37.592 56.833,37.983 56.833 C 38.262 56.833,39.000 56.456,39.000 56.313 C 39.000 55.831,40.825 55.607,45.292 55.540 L 49.833 55.472 49.833 44.143 C 49.833 30.612,49.858 30.779,47.661 29.591 C 46.766 29.107,42.677 28.787,41.417 29.103 M211.583 29.403 C 209.608 29.862,208.662 30.591,207.884 32.251 L 207.417 33.250 207.365 56.750 C 207.311 81.417,207.310 81.377,208.045 82.622 C 209.093 84.398,209.939 84.750,213.167 84.750 C 217.061 84.750,217.792 84.320,219.107 81.250 C 219.185 81.067,219.287 73.612,219.333 64.684 L 219.417 48.452 220.417 49.822 C 220.967 50.576,221.792 51.707,222.250 52.335 C 222.708 52.964,223.196 53.642,223.333 53.841 C 223.471 54.041,223.771 54.453,224.000 54.757 C 224.535 55.467,226.009 57.507,226.333 57.987 C 226.471 58.191,227.108 59.063,227.750 59.926 C 229.365 62.098,230.339 63.435,230.860 64.194 C 231.104 64.549,231.498 65.082,231.734 65.378 C 232.176 65.931,233.223 67.356,233.667 68.009 C 234.298 68.938,235.761 70.939,235.954 71.138 C 236.072 71.260,236.254 71.518,236.357 71.711 C 236.460 71.904,236.613 72.142,236.697 72.240 C 236.875 72.448,240.801 77.801,241.167 78.335 C 245.040 83.987,246.010 84.715,249.786 84.804 C 253.927 84.901,255.375 83.887,256.078 80.403 C 256.486 78.377,256.383 33.816,255.967 32.642 C 255.524 31.391,255.215 30.899,254.547 30.381 C 253.121 29.276,251.289 28.997,248.165 29.407 C 246.435 29.634,244.920 31.116,244.522 32.970 C 244.389 33.588,244.332 38.489,244.328 49.467 L 244.323 65.083 243.953 64.641 C 243.583 64.200,243.418 63.978,242.702 62.959 C 242.492 62.661,241.929 61.884,241.452 61.233 C 240.974 60.581,240.471 59.881,240.333 59.676 C 240.196 59.472,239.558 58.597,238.917 57.733 C 238.275 56.869,237.262 55.486,236.667 54.659 C 236.071 53.833,235.396 52.903,235.167 52.595 C 234.938 52.286,234.600 51.826,234.417 51.573 C 234.047 51.062,233.251 50.014,233.025 49.740 C 232.944 49.642,232.791 49.398,232.683 49.198 C 232.576 48.997,231.985 48.165,231.369 47.349 C 230.754 46.532,230.137 45.700,230.000 45.499 C 229.862 45.298,229.356 44.597,228.874 43.942 C 228.393 43.286,227.891 42.600,227.759 42.417 C 227.627 42.233,227.121 41.544,226.635 40.886 C 226.148 40.227,225.637 39.526,225.500 39.327 C 225.136 38.801,223.534 36.613,223.367 36.413 C 223.288 36.319,222.943 35.832,222.599 35.330 C 222.255 34.827,221.811 34.229,221.612 33.999 C 221.413 33.769,221.049 33.282,220.804 32.916 C 219.464 30.918,217.692 29.599,216.083 29.401 C 214.427 29.198,212.463 29.199,211.583 29.403 M29.089 29.657 C 28.350 30.853,28.901 34.368,30.049 35.777 C 31.256 37.258,32.564 38.116,34.185 38.490 C 35.745 38.850,35.622 39.102,35.710 35.375 C 35.787 32.108,36.056 30.608,36.687 29.925 C 36.768 29.838,36.833 29.707,36.833 29.633 C 36.833 29.442,29.208 29.465,29.089 29.657 M51.001 29.625 C 51.001 29.694,51.147 29.989,51.325 30.281 C 51.888 31.205,52.167 33.094,52.167 35.993 L 52.167 38.667 55.046 38.667 C 59.935 38.667,62.988 39.299,64.729 40.674 C 66.886 42.376,67.810 43.996,68.171 46.709 C 68.375 48.244,68.161 51.022,67.805 51.450 C 67.707 51.569,67.670 51.667,67.724 51.667 C 68.103 51.667,66.719 53.946,65.764 54.894 C 65.210 55.444,63.374 56.666,63.099 56.668 C 62.999 56.668,62.695 56.784,62.425 56.925 C 61.025 57.655,58.539 57.832,49.646 57.832 C 40.186 57.833,40.266 57.825,39.147 59.000 C 37.848 60.366,37.917 59.694,37.917 71.083 L 37.917 81.250 38.452 82.343 C 39.466 84.416,40.106 84.724,43.562 84.803 C 46.951 84.880,48.004 84.524,49.084 82.932 C 49.771 81.919,49.825 81.257,49.829 73.726 L 49.833 66.535 56.208 66.444 C 59.715 66.394,62.958 66.283,63.417 66.197 C 65.880 65.738,67.936 65.291,68.083 65.183 C 68.175 65.115,68.587 64.954,69.000 64.825 C 69.412 64.696,70.106 64.420,70.541 64.212 C 70.976 64.004,71.374 63.833,71.425 63.833 C 71.991 63.833,74.984 61.454,76.252 59.994 C 79.269 56.523,80.774 49.304,79.605 43.917 C 79.155 41.844,78.962 41.097,78.831 40.917 C 78.765 40.825,78.617 40.461,78.503 40.109 C 78.242 39.297,77.322 37.663,76.623 36.770 C 73.805 33.165,70.099 31.190,63.917 29.999 C 61.757 29.582,50.999 29.271,51.001 29.625 M267.950 29.676 C 264.766 30.046,263.346 31.945,263.538 35.575 C 263.778 40.099,265.074 40.664,275.208 40.666 L 281.667 40.667 281.667 60.524 C 281.667 82.993,281.602 81.857,282.957 83.356 C 284.739 85.329,290.747 85.449,292.777 83.552 C 294.374 82.061,294.333 82.672,294.333 60.219 L 294.333 40.667 298.375 40.661 C 306.172 40.650,307.843 40.267,309.900 38.018 C 310.184 37.707,310.501 37.366,310.605 37.259 C 311.956 35.861,312.750 32.020,312.061 30.214 L 311.788 29.500 290.436 29.522 C 278.692 29.534,268.573 29.603,267.950 29.676 M93.730 29.819 C 91.598 30.351,90.215 31.740,89.484 34.082 C 89.009 35.605,89.004 79.111,89.478 80.853 C 90.342 84.022,91.761 84.906,95.803 84.797 C 99.156 84.706,100.146 84.231,101.172 82.222 L 101.583 81.417 101.631 73.208 L 101.679 65.000 103.986 65.000 L 106.293 65.000 107.021 65.955 C 107.922 67.134,108.140 67.404,108.667 67.986 C 108.896 68.239,109.233 68.659,109.417 68.918 C 109.600 69.178,110.559 70.409,111.548 71.653 C 112.536 72.898,113.511 74.133,113.714 74.397 C 113.917 74.662,114.196 75.012,114.333 75.177 C 114.471 75.341,114.808 75.754,115.083 76.094 C 115.358 76.435,115.658 76.796,115.750 76.898 C 115.842 77.000,116.122 77.358,116.372 77.694 C 116.623 78.030,116.926 78.405,117.045 78.527 C 117.164 78.650,117.445 79.012,117.670 79.333 C 119.312 81.677,120.991 83.289,122.654 84.119 L 123.917 84.750 126.250 84.750 C 129.292 84.750,130.880 84.177,132.533 82.483 C 134.026 80.952,133.914 79.938,132.066 78.252 C 131.964 78.159,131.369 77.446,130.742 76.667 C 130.116 75.887,129.469 75.100,129.305 74.917 C 129.140 74.733,128.461 73.907,127.795 73.081 C 127.128 72.255,126.455 71.430,126.298 71.248 C 126.141 71.066,125.465 70.242,124.796 69.417 C 123.636 67.986,123.119 67.360,122.750 66.940 C 122.658 66.835,122.283 66.375,121.917 65.916 C 121.089 64.881,120.730 64.456,120.044 63.701 C 119.393 62.984,119.321 63.064,120.914 62.735 C 123.378 62.225,126.076 61.034,127.848 59.673 C 128.473 59.192,129.756 57.914,130.534 56.995 C 133.888 53.038,134.601 44.394,132.033 38.833 C 131.800 38.329,131.548 37.892,131.472 37.861 C 131.396 37.831,131.333 37.718,131.332 37.611 C 131.331 37.383,129.782 35.410,129.142 34.822 C 126.813 32.682,123.573 31.103,120.052 30.392 C 119.336 30.247,118.412 30.053,118.000 29.961 C 117.100 29.759,94.498 29.627,93.730 29.819 M115.155 40.061 C 119.242 41.260,121.020 43.857,120.795 48.294 C 120.678 50.597,120.195 51.760,118.737 53.246 C 116.715 55.308,114.962 55.707,107.542 55.797 L 101.667 55.868 101.667 47.670 L 101.667 39.471 107.625 39.535 C 113.555 39.599,113.591 39.601,115.155 40.061 M173.031 40.052 C 174.810 40.399,177.281 41.431,178.450 42.316 C 178.707 42.510,179.140 42.837,179.414 43.043 C 180.500 43.860,181.633 45.132,182.495 46.500 C 182.813 47.004,183.138 47.463,183.217 47.519 C 183.297 47.575,183.355 47.669,183.347 47.727 C 183.339 47.786,183.524 48.227,183.758 48.708 C 185.603 52.505,185.942 58.549,184.582 63.413 C 184.317 64.358,182.773 67.656,182.511 67.833 C 182.443 67.879,182.320 68.041,182.236 68.192 C 181.910 68.780,180.541 70.245,179.667 70.940 C 179.162 71.341,178.667 71.736,178.566 71.818 C 178.340 72.002,176.627 72.878,175.833 73.216 C 172.367 74.693,167.133 74.693,163.667 73.216 C 162.693 72.801,161.183 72.017,161.000 71.832 C 160.954 71.786,160.617 71.525,160.250 71.252 C 158.490 69.943,155.500 65.951,155.500 64.911 C 155.500 64.850,155.393 64.564,155.262 64.275 C 153.648 60.717,153.639 53.403,155.243 49.750 C 155.364 49.475,155.518 49.063,155.586 48.833 C 156.058 47.237,158.545 43.987,160.250 42.740 C 160.617 42.471,160.954 42.205,161.000 42.148 C 162.382 40.431,169.031 39.273,173.031 40.052 M346.486 40.073 C 347.883 40.343,348.112 40.424,350.167 41.385 C 352.814 42.624,355.618 45.463,356.822 48.126 C 356.916 48.332,357.136 48.820,357.312 49.209 C 359.390 53.805,359.207 61.495,356.916 65.917 C 355.523 68.604,354.683 69.592,351.890 71.830 C 351.784 71.915,351.147 72.255,350.474 72.586 C 349.801 72.917,349.114 73.261,348.948 73.352 C 348.136 73.793,344.899 74.333,343.068 74.333 C 340.975 74.333,337.979 73.785,337.083 73.238 C 336.900 73.126,336.563 72.979,336.333 72.912 C 334.459 72.360,331.417 69.568,329.871 66.981 C 327.125 62.387,326.526 54.287,328.595 49.725 C 328.726 49.436,328.833 49.145,328.833 49.079 C 328.833 47.977,332.283 43.472,333.825 42.562 C 334.105 42.397,334.333 42.203,334.333 42.131 C 334.333 42.059,334.410 42.000,334.503 42.000 C 334.597 42.000,334.953 41.828,335.295 41.618 C 338.043 39.929,342.530 39.310,346.486 40.073 M43.083 88.825 C 37.214 89.972,35.580 97.593,40.500 100.872 C 44.887 103.796,50.833 100.557,50.833 95.244 C 50.833 94.351,50.237 92.167,49.993 92.167 C 49.905 92.167,49.833 92.071,49.833 91.955 C 49.833 90.379,45.473 88.358,43.083 88.825 M115.552 113.167 C 114.984 113.246,114.384 113.384,114.218 113.472 C 114.052 113.561,113.859 113.638,113.789 113.644 C 113.718 113.649,113.343 113.797,112.955 113.973 C 108.141 116.149,107.907 122.787,112.564 125.058 C 113.697 125.610,114.359 125.813,117.583 126.599 C 120.963 127.423,122.402 128.871,121.760 130.804 C 121.124 132.719,120.132 133.247,117.167 133.249 L 114.917 133.250 113.583 132.602 C 112.619 132.133,111.982 131.674,111.284 130.943 L 110.318 129.933 109.729 130.249 C 106.879 131.785,109.729 135.487,114.406 136.323 C 120.846 137.475,125.667 134.675,125.667 129.783 C 125.667 126.215,123.150 124.010,117.833 122.917 C 114.291 122.189,112.833 121.200,112.833 119.527 C 112.833 115.856,119.099 114.989,122.386 118.205 C 123.547 119.341,123.814 119.363,124.667 118.391 C 125.256 117.720,125.328 116.545,124.818 115.922 C 124.267 115.247,123.378 114.483,122.875 114.250 C 121.494 113.612,121.202 113.501,120.500 113.350 C 119.356 113.104,116.706 113.005,115.552 113.167 M138.709 113.178 C 126.979 114.703,125.438 131.936,136.667 136.015 C 138.355 136.628,142.714 136.596,144.468 135.957 C 148.772 134.389,151.332 131.073,151.862 126.379 C 152.804 118.035,146.902 112.112,138.709 113.178 M197.708 113.710 C 196.939 114.097,196.859 114.359,197.164 115.500 C 197.416 116.441,198.088 119.038,198.891 122.167 C 199.302 123.771,199.989 126.433,200.417 128.083 C 200.846 129.733,201.336 131.646,201.507 132.333 C 202.161 134.960,202.300 135.478,202.396 135.633 C 202.776 136.248,205.135 136.568,206.089 136.134 C 206.601 135.900,206.992 135.171,207.408 133.667 C 207.574 133.071,207.804 132.358,207.920 132.083 C 208.036 131.808,208.186 131.321,208.252 131.000 C 208.318 130.679,208.430 130.342,208.500 130.250 C 208.570 130.158,208.684 129.821,208.753 129.500 C 208.822 129.179,209.158 128.054,209.501 127.000 C 210.377 124.304,210.864 122.778,210.909 122.583 C 211.370 120.627,211.496 120.552,211.888 122.000 C 212.025 122.504,212.488 124.079,212.917 125.500 C 213.346 126.921,213.836 128.571,214.005 129.167 C 214.174 129.762,214.511 130.887,214.753 131.667 C 214.995 132.446,215.334 133.561,215.507 134.145 C 216.062 136.021,216.442 136.333,218.167 136.333 C 219.172 136.333,219.690 136.191,220.221 135.770 C 220.512 135.539,220.648 135.062,222.270 128.583 C 223.049 125.474,223.317 124.419,223.666 123.083 C 223.858 122.350,224.201 121.000,224.430 120.083 C 224.659 119.167,224.990 117.854,225.166 117.167 C 225.342 116.479,225.576 115.564,225.686 115.132 C 225.917 114.226,225.816 114.021,224.925 113.599 C 223.105 112.735,222.003 113.595,221.426 116.333 C 221.281 117.021,221.129 117.696,221.089 117.833 C 221.049 117.971,220.867 118.796,220.683 119.667 C 220.500 120.537,220.151 122.112,219.908 123.167 C 219.489 124.987,219.265 125.995,218.525 129.389 C 218.226 130.766,217.833 131.647,217.833 130.945 C 217.833 130.786,217.692 130.227,217.519 129.703 C 216.928 127.907,215.856 124.417,215.614 123.500 C 215.480 122.996,215.166 121.908,214.915 121.083 C 214.664 120.258,214.309 119.058,214.126 118.417 C 213.589 116.534,212.575 115.907,210.701 116.300 C 209.523 116.548,209.326 116.830,208.593 119.327 C 208.255 120.476,207.880 121.717,207.757 122.083 C 207.635 122.450,207.333 123.425,207.085 124.250 C 206.837 125.075,206.497 126.200,206.330 126.750 C 205.664 128.932,205.174 130.606,205.069 131.049 C 204.911 131.725,204.833 131.547,204.413 129.548 C 203.991 127.536,203.460 125.122,202.973 123.000 C 202.794 122.221,202.461 120.721,202.232 119.667 C 202.004 118.612,201.685 117.150,201.524 116.417 C 200.891 113.530,199.720 112.699,197.708 113.710 M236.042 113.665 C 235.744 113.846,235.497 114.090,235.494 114.206 C 235.491 114.322,235.344 114.717,235.167 115.083 C 234.990 115.450,234.842 115.801,234.839 115.864 C 234.836 115.927,234.746 116.189,234.639 116.447 C 234.532 116.706,234.432 116.954,234.416 117.000 C 234.401 117.046,234.328 117.233,234.255 117.417 C 234.181 117.600,233.826 118.537,233.465 119.500 C 233.104 120.462,232.741 121.400,232.659 121.583 C 232.359 122.257,231.205 125.270,231.001 125.917 C 230.885 126.283,230.734 126.658,230.667 126.750 C 230.599 126.842,230.449 127.217,230.333 127.583 C 230.218 127.950,230.068 128.325,230.000 128.417 C 229.932 128.508,229.782 128.883,229.667 129.250 C 229.551 129.617,229.398 129.992,229.326 130.083 C 229.254 130.175,229.193 130.287,229.192 130.333 C 229.186 130.467,228.021 133.612,227.661 134.466 C 227.230 135.489,227.968 136.228,229.434 136.242 C 230.799 136.255,231.076 135.919,232.250 132.833 C 232.581 131.962,233.012 130.856,233.207 130.375 L 233.561 129.500 237.927 129.500 L 242.292 129.500 242.646 130.323 C 242.841 130.775,243.000 131.192,243.000 131.248 C 243.000 131.305,243.137 131.666,243.304 132.051 C 243.471 132.435,243.823 133.313,244.085 134.000 C 244.984 136.356,246.580 137.015,248.170 135.687 L 248.730 135.220 248.453 134.635 C 248.300 134.314,247.920 133.383,247.607 132.567 C 246.644 130.050,245.839 127.979,245.250 126.500 C 244.940 125.721,244.415 124.371,244.083 123.500 C 243.752 122.629,243.381 121.692,243.259 121.417 C 243.137 121.142,242.982 120.729,242.915 120.500 C 242.848 120.271,242.737 120.008,242.668 119.917 C 242.600 119.825,242.412 119.337,242.250 118.833 C 242.088 118.329,241.901 117.842,241.833 117.750 C 241.765 117.658,241.616 117.283,241.500 116.917 C 241.384 116.550,241.235 116.175,241.167 116.083 C 241.099 115.992,240.916 115.525,240.760 115.047 C 240.214 113.373,237.719 112.642,236.042 113.665 M157.562 113.738 C 156.478 114.213,156.500 113.984,156.500 125.057 L 156.500 135.063 156.875 135.614 C 157.240 136.150,157.282 136.164,158.433 136.166 C 160.299 136.167,160.240 136.324,160.300 131.233 L 160.349 127.000 164.316 127.000 C 169.389 127.000,169.667 126.911,169.667 125.290 C 169.667 123.856,169.588 123.833,164.531 123.833 L 160.167 123.833 160.167 120.333 L 160.167 116.833 165.766 116.833 C 172.441 116.833,172.333 116.860,172.333 115.184 C 172.333 113.429,172.719 113.515,164.830 113.512 C 159.473 113.510,157.976 113.556,157.562 113.738 M175.214 113.700 C 174.424 114.084,174.315 115.826,175.039 116.501 C 175.372 116.811,175.629 116.833,178.865 116.833 L 182.333 116.833 182.333 126.016 C 182.333 136.852,182.214 136.167,184.106 136.167 C 186.273 136.167,186.167 136.700,186.167 125.808 L 186.167 116.833 189.638 116.833 C 193.755 116.833,193.833 116.802,193.833 115.143 C 193.833 113.400,194.478 113.511,184.329 113.516 C 178.414 113.518,175.464 113.578,175.214 113.700 M253.897 113.813 C 253.004 114.366,253.000 114.417,253.000 125.030 C 253.000 136.913,252.874 136.267,255.159 136.135 C 256.695 136.046,256.740 135.911,256.800 131.238 L 256.850 127.333 258.009 127.333 C 258.646 127.333,259.167 127.398,259.167 127.477 C 259.167 127.556,259.339 127.800,259.550 128.019 C 259.761 128.238,260.229 128.792,260.590 129.250 C 261.274 130.118,262.812 132.007,263.304 132.583 C 263.461 132.767,264.033 133.468,264.576 134.141 C 265.981 135.882,266.401 136.167,267.569 136.167 C 269.508 136.167,270.212 135.008,269.040 133.746 C 268.697 133.377,268.117 132.703,267.750 132.247 C 267.383 131.792,266.847 131.156,266.558 130.835 C 266.270 130.513,265.735 129.875,265.370 129.417 C 265.005 128.958,264.435 128.283,264.104 127.917 C 263.337 127.070,263.376 126.988,264.668 126.725 C 268.158 126.013,269.737 124.026,269.745 120.333 C 269.754 116.583,268.315 114.751,264.645 113.839 C 262.755 113.369,254.644 113.350,253.897 113.813 M275.250 113.916 L 274.750 114.329 274.705 124.585 C 274.656 135.604,274.631 135.280,275.552 135.842 C 276.277 136.284,289.830 136.349,290.670 135.915 C 291.606 135.431,291.823 134.061,291.098 133.218 L 290.696 132.750 284.515 132.701 L 278.333 132.651 278.333 129.416 L 278.333 126.181 283.183 126.132 L 288.032 126.083 288.432 125.583 C 288.978 124.900,288.975 123.960,288.424 123.409 L 288.015 123.000 283.174 123.000 L 278.333 123.000 278.333 119.917 L 278.333 116.833 284.424 116.833 L 290.515 116.833 290.944 116.405 C 291.325 116.023,291.364 115.875,291.297 115.063 C 291.166 113.486,291.712 113.589,283.203 113.544 L 275.750 113.504 275.250 113.916 M143.089 116.862 C 144.699 117.474,147.167 119.609,147.167 120.390 C 147.167 120.428,147.295 120.750,147.451 121.105 C 147.607 121.460,147.755 121.862,147.779 122.000 C 147.803 122.138,147.897 122.587,147.987 123.000 C 148.293 124.390,148.103 127.510,147.679 128.083 C 147.611 128.175,147.454 128.512,147.329 128.833 C 147.026 129.612,145.996 131.003,145.416 131.417 C 145.159 131.600,144.811 131.881,144.641 132.042 C 144.472 132.202,144.333 132.287,144.333 132.230 C 144.333 132.173,144.232 132.210,144.107 132.314 C 142.664 133.512,138.779 133.397,136.596 132.092 C 133.012 129.948,131.761 124.350,133.957 120.281 C 134.489 119.296,136.174 117.500,136.566 117.500 C 136.713 117.500,136.833 117.431,136.833 117.346 C 136.833 117.262,137.115 117.106,137.458 117.001 C 137.802 116.896,138.233 116.743,138.417 116.662 C 139.392 116.228,141.680 116.326,143.089 116.862 M262.051 116.676 C 264.841 117.084,266.000 118.194,266.000 120.458 C 266.000 123.368,264.695 124.196,259.958 124.295 L 256.667 124.363 256.667 120.432 L 256.667 116.500 258.760 116.500 C 259.911 116.500,261.392 116.579,262.051 116.676 M238.514 118.833 C 238.665 119.246,238.980 120.108,239.214 120.750 C 240.169 123.378,241.019 125.600,241.171 125.873 C 241.509 126.476,241.385 126.500,237.899 126.500 C 234.694 126.500,234.472 126.481,234.583 126.208 C 234.648 126.048,234.767 125.692,234.848 125.417 C 234.929 125.142,235.068 124.767,235.158 124.583 C 235.247 124.400,235.575 123.575,235.886 122.750 C 236.197 121.925,236.512 121.100,236.586 120.917 C 236.660 120.733,236.729 120.546,236.738 120.500 C 236.747 120.454,237.012 119.758,237.326 118.953 C 237.952 117.352,237.969 117.350,238.514 118.833 " stroke="none" fill="#241444" fill-rule="evenodd"></path><path id="path1" d="M109.217 119.667 C 109.217 120.171,109.248 120.377,109.286 120.125 C 109.324 119.873,109.324 119.460,109.286 119.208 C 109.248 118.956,109.217 119.162,109.217 119.667 " stroke="none" fill="#24144c" fill-rule="evenodd"></path><path id="path2" d="" stroke="none" fill="#281444" fill-rule="evenodd"></path><path id="path3" d="" stroke="none" fill="#281444" fill-rule="evenodd"></path><path id="path4" d="" stroke="none" fill="#281444" fill-rule="evenodd"></path></g></svg>